<?xml version="1.0" encoding="utf-8"?>
<!-- Generator: Adobe Illustrator 28.0.0, SVG Export Plug-In . SVG Version: 6.00 Build 0)  -->
<svg version="1.1" id="Layer_1" xmlns="http://www.w3.org/2000/svg" xmlns:xlink="http://www.w3.org/1999/xlink" x="0px" y="0px"
	 viewBox="0 0 241 246.51" style="enable-background:new 0 0 241 246.51;" xml:space="preserve">
<style type="text/css">
	.st0{fill:#E2B52D;}
	.st1{fill:#0075A8;}
</style>
<g>
	<path class="st0" d="M97.5,15.71c7.19-0.92-2.86,2.54-7,5c-26.62,15.8-38.51,44.03-29.25,73.74c0.15,1.79-8.05,32.51-9,34
		c-0.23,0.36-0.77,0.9-1.25,0.75c-18.03-26.99-21.63-56.5-1.75-83.74C59.49,31.44,80.24,17.91,97.5,15.71z"/>
	<path class="st0" d="M141,15.21c54.09,11.18,80.6,63.04,49.49,111.49c-5.37-15.37-5.37-15.37-10.75-30.75
		C188.18,60.24,172.58,32.02,141,15.21z"/>
</g>
<path class="st1" d="M234.12,201.83c-3.7-0.07-6.87,2.75-7.1,6.44c-0.99,15.66-20.33,14.84-28.28,2.17
	C173.71,141.04,153.89,69.7,129.93,0c-9.09,0.11-8.85,0.1-17.93,0.21L45.75,207.44c-7.05,13.83-27.09,13.31-31.53-0.38
	c-0.95-2.93-3.59-4.99-6.67-5.1c-4.07-0.15-7.48,3.06-7.55,7.13c-0.41,24.29,12.36,39.79,40,37.1c34.43-3.34,42.1-43.42,45.94-54.94
	l0,0L96,158.19c24.75,0,24.75,0,49.49,0c2.37,7.12,8.49,25.93,10.87,33.06l0,0c4.23,11.54,10.15,51.58,43.13,54.94
	c27.45,2.79,41.2-12.81,41.51-37.25C241.05,205.08,237.98,201.9,234.12,201.83z M102.25,123.61c0,0,11.62-59.87,14.25-66.75
	c0.36,0,0.71,0,1.05,0c5.38,0,7.28,0,7.39,0c0.34,0,0.68,0,1.04,0c2.37,7.12,15.75,66.75,15.75,66.75H102.25z"/>
</svg>
